<svg width="32768" height="15632" viewBox="0 0 32768 15632" fill="none" xmlns="http://www.w3.org/2000/svg">
<g clip-path="url(#clip0_14_5)">
<path d="M33105.8 -1692.96C33105.8 6939.55 25619.3 13937.7 16384 13937.7C7148.7 13937.7 -337.836 6939.55 -337.836 -1692.96C-337.836 -10325.5 7148.7 -17323.6 16384 -17323.6C25619.3 -17323.6 33105.8 -10325.5 33105.8 -1692.96Z" fill="url(#paint0_radial_14_5)" stroke="#51487B" stroke-width="3"/>
<path d="M30289 -355.882C30289 6822.45 24063.6 12641.8 16384 12641.8C8704.4 12641.8 2479 6822.45 2479 -355.882C2479 -7534.22 8704.4 -13353.5 16384 -13353.5C24063.6 -13353.5 30289 -7534.22 30289 -355.882Z" stroke="#51487B" stroke-width="3"/>
<path d="M27067.6 -355.882C27067.6 5159.21 22284.5 9630.22 16384 9630.22C10483.5 9630.22 5700.41 5159.21 5700.41 -355.882C5700.41 -5870.97 10483.5 -10342 16384 -10342C22284.5 -10342 27067.6 -5870.97 27067.6 -355.882Z" stroke="#51487B" stroke-width="3"/>
<path d="M23356.9 -355.882C23356.9 3243.79 20235.1 6162.05 16384 6162.05C12532.9 6162.05 9411.15 3243.79 9411.15 -355.882C9411.15 -3955.56 12532.9 -6873.81 16384 -6873.81C20235.1 -6873.81 23356.9 -3955.56 23356.9 -355.882Z" stroke="#51487B" stroke-width="3"/>
<path d="M19814.8 -355.882C19814.8 1415.06 18278.9 2850.83 16384 2850.83C14489.1 2850.83 12953.2 1415.06 12953.2 -355.882C12953.2 -2126.82 14489.1 -3562.6 16384 -3562.6C18278.9 -3562.6 19814.8 -2126.82 19814.8 -355.882Z" stroke="#51487B" stroke-width="3"/>
</g>
<defs>
<radialGradient id="paint0_radial_14_5" cx="0" cy="0" r="1" gradientUnits="userSpaceOnUse" gradientTransform="translate(16384 -1692.96) rotate(90) scale(15631.9 16723.1)">
<stop stop-color="#6900BC"/>
<stop offset="1" stop-color="#737373" stop-opacity="0"/>
</radialGradient>
<clipPath id="clip0_14_5">
<rect width="39040" height="18624" fill="white" transform="scale(0.839344)"/>
</clipPath>
</defs>
</svg>
