<svg width="4176" height="395" viewBox="0 0 4176 395" fill="none" xmlns="http://www.w3.org/2000/svg">
<path d="M0 391.865V3.65737H102.545V153.089H218.833V3.65737H321.378V391.865H218.833V244.001H102.545V391.865H0Z" fill="white"/>
<path d="M498.334 391.865V281.62L384.688 3.65737H490.933L551.72 178.168L612.507 3.65737H714.524L600.879 281.62V391.865H498.334Z" fill="white"/>
<path d="M777.842 391.865V3.65737H950.16C963.551 3.65737 977.294 5.22482 991.39 8.35975C1005.49 11.1463 1018.35 17.242 1029.98 26.6468C1041.96 35.7032 1051.47 49.6362 1058.52 68.4457C1065.92 86.9069 1069.62 111.638 1069.62 142.639C1069.62 173.988 1066.1 199.242 1059.05 218.4C1052 237.209 1042.84 251.49 1031.56 261.243C1020.29 270.648 1007.95 277.092 994.561 280.576C981.523 283.71 968.66 285.278 955.974 285.278C949.279 285.278 942.231 284.929 934.831 284.233C927.783 283.536 920.736 282.665 913.688 281.62C906.992 280.227 900.649 279.008 894.659 277.963C889.021 276.57 884.263 275.525 880.387 274.828V391.865H777.842ZM880.387 194.365H939.588C946.636 194.365 952.098 192.449 955.974 188.618C960.203 184.786 963.022 179.213 964.432 171.898C966.194 164.235 967.075 154.83 967.075 143.684C967.075 132.886 966.018 123.829 963.903 116.515C962.141 109.2 959.322 103.801 955.446 100.317C951.57 96.4858 946.284 94.5702 939.588 94.5702H880.387V194.365Z" fill="white"/>
<path d="M1247.65 395C1239.2 395 1228.98 394.129 1217 392.388C1205.37 390.646 1193.91 386.814 1182.64 380.893C1171.71 374.971 1162.55 365.915 1155.15 353.724C1147.75 341.184 1144.05 324.116 1144.05 302.52V99.7949C1144.05 80.9853 1147.05 65.3108 1153.04 52.7711C1159.03 40.2314 1166.78 30.4784 1176.29 23.5119C1185.81 16.1971 1196.38 11.1463 1208.01 8.35975C1219.64 5.22482 1230.91 3.65737 1241.84 3.65737C1271.44 3.65737 1296.81 4.17987 1317.95 5.22485C1339.45 5.92149 1357.95 6.79229 1373.46 7.83727C1389.31 8.88223 1403.23 10.1014 1415.21 11.4947V97.1825H1273.55C1264.74 97.1825 1258.05 99.0984 1253.47 102.93C1248.89 106.762 1246.6 112.509 1246.6 120.172V152.566L1388.78 157.791V238.254L1246.6 243.479V272.738C1246.6 279.008 1247.48 284.233 1249.24 288.413C1251.35 292.244 1254.17 295.205 1257.7 297.295C1261.22 299.037 1265.1 299.907 1269.32 299.907H1415.21V385.595C1400.06 387.685 1382.79 389.427 1363.41 390.82C1344.03 392.214 1324.3 393.258 1304.21 393.955C1284.12 394.652 1265.27 395 1247.65 395Z" fill="white"/>
<path d="M1494.77 391.865V3.65737H1662.33C1679.6 3.65737 1695.46 5.74732 1709.91 9.92723C1724.35 14.1071 1736.86 21.2478 1747.44 31.3492C1758.01 41.1022 1766.11 54.3385 1771.75 71.0581C1777.74 87.7777 1780.74 108.851 1780.74 134.279C1780.74 150.302 1779.33 164.235 1776.51 176.078C1773.69 187.921 1769.81 198.022 1764.88 206.382C1760.3 214.394 1754.66 221.186 1747.96 226.759C1741.62 232.333 1734.75 237.209 1727.35 241.389L1795.54 391.865H1691.41L1636.43 258.109C1633.26 258.109 1629.91 258.109 1626.39 258.109C1623.22 258.109 1620.05 258.109 1616.88 258.109C1613.7 258.109 1610.36 258.109 1606.83 258.109C1603.66 258.109 1600.49 258.109 1597.32 258.109V391.865H1494.77ZM1597.32 177.646H1643.83C1649.47 177.646 1654.41 176.949 1658.63 175.556C1662.86 173.814 1666.39 171.201 1669.21 167.718C1672.38 164.235 1674.67 159.881 1676.08 154.656C1677.49 149.083 1678.19 142.465 1678.19 134.802C1678.19 127.138 1677.49 120.694 1676.08 115.47C1674.67 110.245 1672.38 106.239 1669.21 103.452C1666.39 100.318 1662.86 98.0533 1658.63 96.66C1654.41 95.2667 1649.47 94.5702 1643.83 94.5702H1597.32V177.646Z" fill="white"/>
<path d="M1864.6 391.865V99.7949C1864.6 80.9853 1867.59 65.3108 1873.58 52.7711C1879.57 40.2314 1887.32 30.4784 1896.84 23.5119C1906.35 16.1971 1916.92 11.1463 1928.55 8.35975C1940.18 5.22482 1951.46 3.65737 1962.38 3.65737C1973.31 3.65737 1988.46 3.83152 2007.84 4.17984C2027.22 4.17984 2048.19 4.87649 2070.74 6.26979C2093.65 7.31477 2115.32 9.23053 2135.76 12.0171V97.1825H1991.98C1983.17 97.1825 1976.83 99.6207 1972.95 104.497C1969.08 109.025 1967.14 113.902 1967.14 119.127V163.016L2109.33 168.241V248.704L1967.14 253.929V391.865H1864.6Z" fill="white"/>
<path d="M2209.64 391.865V3.65737H2312.18V391.865H2209.64Z" fill="white"/>
<path d="M2509.72 394.478C2485.41 394.478 2465.5 389.427 2449.99 379.325C2434.84 368.876 2423.03 354.769 2414.58 337.004C2406.12 318.891 2400.13 297.992 2396.61 274.306C2393.43 250.62 2391.85 225.366 2391.85 198.545C2391.85 168.589 2393.79 141.42 2397.66 117.037C2401.89 92.6544 2409.29 71.7548 2419.86 54.3386C2430.79 36.9223 2446.29 23.5118 2466.38 14.1071C2486.46 4.7023 2512.54 0 2544.61 0C2565.4 0 2583.2 0.870804 2598 2.61242C2613.15 4.00573 2627.24 6.26983 2640.28 9.40476C2653.32 12.1914 2666.89 15.5004 2680.98 19.332V98.2275C2673.23 96.8342 2663.36 95.6151 2651.38 94.5702C2639.4 93.5252 2626.01 92.6543 2611.21 91.9577C2596.41 91.261 2580.73 90.9126 2564.17 90.9126C2543.73 90.9126 2528.57 94.0475 2518.71 100.317C2508.84 106.239 2502.32 117.037 2499.15 132.712C2495.98 148.386 2494.39 170.331 2494.39 198.545C2494.39 220.141 2495.27 237.731 2497.04 251.316C2498.8 264.552 2501.62 274.828 2505.49 282.143C2509.72 289.458 2515.01 294.508 2521.35 297.295C2527.69 300.082 2535.27 301.475 2544.08 301.475C2557.12 301.475 2568.75 300.952 2578.97 299.907C2589.19 298.514 2596.94 297.295 2602.22 296.25V246.091H2547.78V165.628C2555.53 164.583 2564.69 163.712 2575.27 163.016C2586.19 162.319 2597.29 161.797 2608.57 161.448C2620.2 160.752 2630.77 160.403 2640.28 160.403C2652.97 160.403 2664.07 160.578 2673.58 160.926C2683.45 160.926 2692.44 161.1 2700.54 161.448V391.865H2623.37L2609.62 366.263C2601.17 371.836 2587.95 377.932 2569.98 384.55C2552.01 391.168 2531.92 394.478 2509.72 394.478Z" fill="white"/>
<path d="M2944.11 394.478C2922.62 394.478 2902.18 392.736 2882.8 389.253C2863.77 385.769 2846.85 379.325 2832.05 369.921C2817.25 360.516 2805.62 347.28 2797.17 330.212C2789.06 313.144 2785.01 291.025 2785.01 263.856V3.65737H2887.56V263.333C2887.56 272.39 2889.67 279.879 2893.9 285.8C2898.48 291.722 2905 296.25 2913.46 299.385C2921.91 302.171 2932.13 303.565 2944.11 303.565C2956.09 303.565 2966.31 302.171 2974.77 299.385C2983.23 296.25 2989.57 291.722 2993.8 285.8C2998.38 279.879 3000.67 272.39 3000.67 263.333V3.65737H3103.22V263.856C3103.22 291.025 3098.99 313.144 3090.53 330.212C3082.43 347.28 3070.97 360.516 3056.17 369.921C3041.37 379.325 3024.46 385.769 3005.43 389.253C2986.4 392.736 2965.96 394.478 2944.11 394.478Z" fill="white"/>
<path d="M3187.99 391.865V3.65737H3355.55C3372.82 3.65737 3388.68 5.74732 3403.13 9.92723C3417.57 14.1071 3430.08 21.2478 3440.66 31.3492C3451.23 41.1022 3459.33 54.3385 3464.97 71.0581C3470.96 87.7777 3473.96 108.851 3473.96 134.279C3473.96 150.302 3472.55 164.235 3469.73 176.078C3466.91 187.921 3463.03 198.022 3458.1 206.382C3453.52 214.394 3447.88 221.186 3441.18 226.759C3434.84 232.333 3427.97 237.209 3420.57 241.389L3488.76 391.865H3384.63L3329.65 258.109C3326.48 258.109 3323.13 258.109 3319.61 258.109C3316.44 258.109 3313.27 258.109 3310.1 258.109C3306.92 258.109 3303.58 258.109 3300.05 258.109C3296.88 258.109 3293.71 258.109 3290.54 258.109V391.865H3187.99ZM3290.54 177.646H3337.05C3342.69 177.646 3347.62 176.949 3351.85 175.556C3356.08 173.814 3359.61 171.201 3362.42 167.718C3365.6 164.235 3367.89 159.881 3369.3 154.656C3370.71 149.083 3371.41 142.465 3371.41 134.802C3371.41 127.138 3370.71 120.694 3369.3 115.47C3367.89 110.245 3365.6 106.239 3362.42 103.452C3359.61 100.318 3356.08 98.0533 3351.85 96.66C3347.62 95.2667 3342.69 94.5702 3337.05 94.5702H3290.54V177.646Z" fill="white"/>
<path d="M3661.42 395C3652.96 395 3642.74 394.129 3630.76 392.388C3619.13 390.646 3607.68 386.814 3596.4 380.893C3585.48 374.971 3576.31 365.915 3568.91 353.724C3561.51 341.184 3557.81 324.116 3557.81 302.52V99.7949C3557.81 80.9853 3560.81 65.3108 3566.8 52.7711C3572.79 40.2314 3580.54 30.4784 3590.06 23.5119C3599.57 16.1971 3610.14 11.1463 3621.77 8.35975C3633.4 5.22482 3644.68 3.65737 3655.6 3.65737C3685.2 3.65737 3710.57 4.17987 3731.72 5.22485C3753.21 5.92149 3771.71 6.79229 3787.22 7.83727C3803.08 8.88223 3817 10.1014 3828.98 11.4947V97.1825H3687.32C3678.51 97.1825 3671.81 99.0984 3667.23 102.93C3662.65 106.762 3660.36 112.509 3660.36 120.172V152.566L3802.55 157.791V238.254L3660.36 243.479V272.738C3660.36 279.008 3661.24 284.233 3663 288.413C3665.12 292.244 3667.94 295.205 3671.46 297.295C3674.98 299.037 3678.86 299.907 3683.09 299.907H3828.98V385.595C3813.82 387.685 3796.56 389.427 3777.18 390.82C3757.79 392.214 3738.06 393.258 3717.97 393.955C3697.89 394.652 3679.04 395 3661.42 395Z" fill="white"/>
<path d="M4031.7 395C4020.07 395 4008.62 394.652 3997.34 393.955C3986.42 393.258 3975.49 392.214 3964.57 390.82C3954 389.427 3943.78 387.859 3933.91 386.118C3924.04 384.376 3914.53 382.286 3905.37 379.848V299.385C3917.35 300.43 3930.21 301.301 3943.95 301.997C3958.05 302.694 3972.14 303.216 3986.24 303.565C4000.69 303.913 4014.08 304.087 4026.41 304.087C4038.04 304.087 4047.73 303.217 4055.48 301.475C4063.24 299.733 4069.05 296.947 4072.93 293.115C4076.8 289.284 4078.74 284.059 4078.74 277.44V271.171C4078.74 263.507 4075.92 257.76 4070.28 253.929C4065 250.097 4058.65 248.181 4051.25 248.181H4023.24C3982.36 248.181 3951.35 239.299 3930.21 221.534C3909.07 203.77 3898.49 173.988 3898.49 132.189V114.947C3898.49 76.6314 3910.12 48.0688 3933.38 29.2593C3956.64 10.1014 3990.12 0.522472 4033.81 0.522472C4050.37 0.522472 4065.88 1.39328 4080.33 3.1349C4095.13 4.5282 4108.87 6.44402 4121.56 8.88228C4134.59 10.9722 4146.22 13.2363 4156.44 15.6746V96.1376C4140.23 94.7443 4121.91 93.6992 4101.47 93.0026C4081.38 91.9576 4063.06 91.4351 4046.5 91.4351C4036.63 91.4351 4027.82 92.1318 4020.07 93.5251C4012.32 94.9184 4006.32 97.705 4002.1 101.885C3997.87 106.065 3995.75 112.16 3995.75 120.172V125.397C3995.75 134.105 3998.57 140.723 4004.21 145.251C4009.85 149.779 4018.48 152.044 4030.11 152.044H4065C4089.66 152.044 4110.1 156.746 4126.31 166.151C4142.88 175.207 4155.21 187.747 4163.31 203.77C4171.77 219.444 4176 237.383 4176 257.586V274.828C4176 307.919 4170.19 333.172 4158.56 350.589C4146.93 368.005 4130.37 379.848 4108.87 386.118C4087.37 392.039 4061.65 395 4031.7 395Z" fill="white"/>
</svg>
