<svg width="832" height="862" viewBox="0 0 832 862" fill="none" xmlns="http://www.w3.org/2000/svg">
<path d="M0 40C0 17.9087 17.9086 0 40 0H791.894C813.985 0 831.894 17.9086 831.894 40V821.516C831.894 843.608 813.985 861.516 791.894 861.516H40C17.9086 861.516 0 843.608 0 821.516V40Z" fill="#000B42"/>
<path d="M174.808 585.963C129.133 351.937 260.682 211.363 332.166 170.328L471.42 184.889V251.073L422.681 259.015L414.326 292.107L350.269 305.344C344.235 329.17 332.166 369.674 332.166 478.745C458.052 344.26 600.927 443.006 656.629 491.982V612.437C579.11 654.795 374.221 708.801 174.808 585.963Z" fill="white"/>
</svg>
